# xmcd
#
# Track frame offsets:
#	150
#	19725
#	39150
#	58050
#	78075
#	93150
#	113100
#	128400
#	151575
#	168600
#	187125
#	208575
#	225975
#	244575
#	260625
#	280650
#
# Disc length: 4062 seconds
#
# Revision: 0
# Processed by: cddbd v1.5.2PL0 Copyright (c) Steve Scherf et al.
# Submitted via: audiograbber 1.83.01
#
DISCID=c10fdc10
DTITLE=Party Tyme Karaoke - Party Tyme Karaoke - Country Hits 7
DYEAR=2009
DGENRE=Karaoke
TTITLE0=Zac Brown Band - Chicken Fried
TTITLE1=Taylor Swift - You Belong with Me
TTITLE2=Billy Currington - People Are Crazy
TTITLE3=Kellie Pickler - Best Days of Your Life
TTITLE4=Bierks Bentley - Sideways
TTITLE5=Lady Antebellum - I Run to You
TTITLE6=Darius Rucker - Don't Think I Don't Think About It
TTITLE7=Carrie Underwood - Just a Dream
TTITLE8=Kenny Chesney - Out Last Night
TTITLE9=Taylor Swift - White Horse
TTITLE10=Brad Paisley - Then
TTITLE11=Kellie Pickler - Don't You Know You're Beautiful
TTITLE12=Jason Aldean - She's Country
TTITLE13=Julianne Hough - That Song in My Head
TTITLE14=Rascal Flatts - Here Comes Goodbye
TTITLE15=Faith Hill - A Baby Changes Everything
EXTD=
EXTT0=
EXTT1=
EXTT2=
EXTT3=
EXTT4=
EXTT5=
EXTT6=
EXTT7=
EXTT8=
EXTT9=
EXTT10=
EXTT11=
EXTT12=
EXTT13=
EXTT14=
EXTT15=
PLAYORDER=
